<?xml version="1.0" encoding="UTF-8"?>
<!DOCTYPE svg PUBLIC "-//W3C//DTD SVG 1.1//EN" "http://www.w3.org/Graphics/SVG/1.1/DTD/svg11.dtd">
<!-- Creator: CorelDRAW 2020 (64 Bit) -->
<svg xmlns="http://www.w3.org/2000/svg" xml:space="preserve" width="1539.89mm" height="4.0437mm" version="1.1" style="shape-rendering:geometricPrecision; text-rendering:geometricPrecision; image-rendering:optimizeQuality; fill-rule:evenodd; clip-rule:evenodd"
viewBox="0 0 203130375 533415"
 xmlns:xlink="http://www.w3.org/1999/xlink"
 xmlns:xodm="http://www.corel.com/coreldraw/odm/2003">
 <defs>
  <style type="text/css">
   <![CDATA[
    .fil5 {fill:none}
    .fil0 {fill:#402020}
    .fil2 {fill:#792700}
    .fil4 {fill:#792700}
    .fil1 {fill:#C44000}
    .fil3 {fill:#C44000}
   ]]>
  </style>
     <clipPath id="id0">
      <path d="M0 0l51208025 0 0 533415 -51208025 0 0 -533415z"/>
     </clipPath>
     <clipPath id="id1">
      <path d="M50618561 0l51208025 0 0 533415 -51208025 0 0 -533415z"/>
     </clipPath>
     <clipPath id="id2">
      <path d="M101303790 0l51208025 0 0 533415 -51208025 0 0 -533415z"/>
     </clipPath>
     <clipPath id="id3">
      <path d="M151922350 0l51208025 0 0 533415 -51208025 0 0 -533415z"/>
     </clipPath>
 </defs>
 <g id="Camada_x0020_1">
  <metadata id="CorelCorpID_0Corel-Layer"/>
  <g id="_2970836974608">
   <g>
    <polygon class="fil0" points="0,0 51208025,0 51208025,533415 0,533415 "/>
    <g style="clip-path:url(#id0)">
     <g>
      <g>
       <g>
        <polygon id="1" class="fil1" points="354172,424811 522875,254182 691578,83567 354172,83567 16766,83567 185443,254182 "/>
        <polygon class="fil2" points="1213951,449861 1393893,267439 1573861,85004 1213951,85004 854068,85004 1034023,267439 "/>
        <polygon class="fil3" points="2095325,404180 2256205,243919 2417059,83712 2095325,83712 1773564,83712 1934444,243919 "/>
        <polygon class="fil4" points="2948996,430708 3124150,257704 3299316,84701 2948996,84701 2598637,84701 2773830,257704 "/>
        <polygon class="fil3" points="3832309,445442 4008056,266239 4183816,86996 3832309,86996 3480802,86996 3656575,266239 "/>
        <polygon class="fil4" points="4726979,429243 4897608,257506 5068303,85756 4726979,85756 4385655,85756 4556311,257506 "/>
       </g>
       <g>
        <polygon class="fil1" points="5581798,424811 5750515,254182 5919204,83567 5581798,83567 5244379,83567 5413069,254182 "/>
        <polygon class="fil2" points="6441578,449861 6621506,267439 6801488,85004 6441578,85004 6081681,85004 6261636,267439 "/>
        <polygon class="fil3" points="7322938,404180 7483818,243919 7644699,83712 7322938,83712 7001203,83712 7162057,243919 "/>
        <polygon class="fil4" points="8176623,430708 8351776,257704 8526943,84701 8176623,84701 7826263,84701 8001443,257704 "/>
        <polygon class="fil3" points="9059935,445442 9235696,266239 9411429,86996 9059935,86996 8708415,86996 8884202,266239 "/>
        <polygon class="fil4" points="9954592,429243 10125248,257506 10295916,85756 9954592,85756 9613282,85756 9783924,257506 "/>
       </g>
       <g>
        <polygon class="fil1" points="10802948,424811 10971677,254182 11140354,83567 10802948,83567 10465542,83567 10634245,254182 "/>
        <polygon class="fil2" points="11662754,449861 11842682,267439 12022637,85004 11662754,85004 11302844,85004 11482812,267439 "/>
        <polygon class="fil3" points="12544114,404180 12704981,243919 12865862,83712 12544114,83712 12222353,83712 12383233,243919 "/>
        <polygon class="fil4" points="13397799,430708 13572926,257704 13748119,84701 13397799,84701 13047426,84701 13222606,257704 "/>
        <polygon class="fil3" points="14281111,445442 14456845,266239 14632579,86996 14281111,86996 13929591,86996 14105364,266239 "/>
        <polygon class="fil4" points="15175768,429243 15346397,257506 15517079,85756 15175768,85756 14834445,85756 15005100,257506 "/>
       </g>
       <g>
        <polygon class="fil1" points="16046299,424811 16215015,254182 16383704,83567 16046299,83567 15708880,83567 15877569,254182 "/>
        <polygon class="fil2" points="16906078,449861 17086007,267439 17265988,85004 16906078,85004 16546181,85004 16726136,267439 "/>
        <polygon class="fil3" points="17787438,404180 17948319,243919 18109199,83712 17787438,83712 17465703,83712 17626584,243919 "/>
        <polygon class="fil4" points="18641123,430708 18816276,257704 18991443,84701 18641123,84701 18290777,84701 18465956,257704 "/>
        <polygon class="fil3" points="19524436,445442 19700196,266239 19875930,86996 19524436,86996 19172915,86996 19348702,266239 "/>
        <polygon class="fil4" points="20419106,429243 20589748,257506 20760429,85756 20419106,85756 20077795,85756 20248424,257506 "/>
       </g>
       <g>
        <polygon class="fil1" points="21287802,424811 21456532,254182 21625208,83567 21287802,83567 20950410,83567 21119099,254182 "/>
        <polygon class="fil2" points="22147595,449861 22327537,267439 22507492,85004 22147595,85004 21787698,85004 21967666,267439 "/>
        <polygon class="fil3" points="23028968,404180 23189849,243919 23350716,83712 23028968,83712 22707207,83712 22868088,243919 "/>
        <polygon class="fil4" points="23882653,430708 24057780,257704 24232973,84701 23882653,84701 23532280,84701 23707460,257704 "/>
        <polygon class="fil3" points="24765966,445442 24941699,266239 25117460,86996 24765966,86996 24414445,86996 24590219,266239 "/>
        <polygon class="fil4" points="25660623,429243 25831251,257506 26001933,85756 25660623,85756 25319299,85756 25489954,257506 "/>
       </g>
       <g>
        <polygon class="fil1" points="26557140,424811 26725856,254182 26894545,83567 26557140,83567 26219721,83567 26388410,254182 "/>
        <polygon class="fil2" points="27416932,449861 27596874,267439 27776829,85004 27416932,85004 27057022,85004 27237003,267439 "/>
        <polygon class="fil3" points="28298305,404180 28459160,243919 28620040,83712 28298305,83712 27976544,83712 28137425,243919 "/>
        <polygon class="fil4" points="29151964,430708 29327117,257704 29502284,84701 29151964,84701 28801618,84701 28976797,257704 "/>
        <polygon class="fil3" points="30035290,445442 30211037,266239 30386771,86996 30035290,86996 29683782,86996 29859543,266239 "/>
        <polygon class="fil4" points="30929947,429243 31100589,257506 31271257,85756 30929947,85756 30588636,85756 30759265,257506 "/>
       </g>
       <g>
        <polygon class="fil1" points="31809117,424811 31977820,254182 32146523,83567 31809117,83567 31471711,83567 31640388,254182 "/>
        <polygon class="fil2" points="32668896,449861 32848838,267439 33028807,85004 32668896,85004 32309013,85004 32488968,267439 "/>
        <polygon class="fil3" points="33550270,404180 33711150,243919 33872004,83712 33550270,83712 33228509,83712 33389389,243919 "/>
        <polygon class="fil4" points="34403942,430708 34579095,257704 34754262,84701 34403942,84701 34053582,84701 34228775,257704 "/>
        <polygon class="fil3" points="35287254,445442 35463001,266239 35638761,86996 35287254,86996 34935747,86996 35111520,266239 "/>
        <polygon class="fil4" points="36181924,429243 36352553,257506 36523222,85756 36181924,85756 35840601,85756 36011256,257506 "/>
       </g>
       <g>
        <polygon class="fil1" points="37073006,424811 37241709,254182 37410386,83567 37073006,83567 36735587,83567 36904277,254182 "/>
        <polygon class="fil2" points="37932786,449861 38112714,267439 38292669,85004 37932786,85004 37572876,85004 37752844,267439 "/>
        <polygon class="fil3" points="38814146,404180 38975026,243919 39135894,83712 38814146,83712 38492385,83712 38653265,243919 "/>
        <polygon class="fil4" points="39667831,430708 39842958,257704 40018151,84701 39667831,84701 39317471,84701 39492638,257704 "/>
        <polygon class="fil3" points="40551143,445442 40726877,266239 40902637,86996 40551143,86996 40199623,86996 40375410,266239 "/>
        <polygon class="fil4" points="41445800,429243 41616442,257506 41787111,85756 41445800,85756 41104490,85756 41275132,257506 "/>
       </g>
       <g>
        <polygon class="fil1" points="42329166,424811 42497869,254182 42666571,83567 42329166,83567 41991747,83567 42160436,254182 "/>
        <polygon class="fil2" points="43188945,449861 43368874,267439 43548855,85004 43188945,85004 42829048,85004 43009003,267439 "/>
        <polygon class="fil3" points="44070305,404180 44231186,243919 44392053,83712 44070305,83712 43748544,83712 43909425,243919 "/>
        <polygon class="fil4" points="44923990,430708 45099144,257704 45274310,84701 44923990,84701 44573631,84701 44748824,257704 "/>
        <polygon class="fil3" points="45807303,445442 45983036,266239 46158797,86996 45807303,86996 45455782,86996 45631569,266239 "/>
        <polygon class="fil4" points="46701973,429243 46872602,257506 47043283,85756 46701973,85756 46360649,85756 46531291,257506 "/>
       </g>
       <polygon class="fil1" points="47556014,424811 47724730,254182 47893420,83567 47556014,83567 47218621,83567 47387311,254182 "/>
       <polygon class="fil2" points="48415806,449861 48595748,267439 48775703,85004 48415806,85004 48055896,85004 48235878,267439 "/>
       <polygon class="fil3" points="49297180,404180 49458060,243919 49618914,83712 49297180,83712 48975419,83712 49136299,243919 "/>
       <polygon class="fil4" points="50150852,430708 50325992,257704 50501185,84701 50150852,84701 49800492,84701 49975672,257704 "/>
       <polygon class="fil3" points="51034177,445442 51209911,266239 51385671,86996 51034177,86996 50682657,86996 50858430,266239 "/>
      </g>
     </g>
    </g>
    <polygon class="fil5" points="0,0 51208025,0 51208025,533415 0,533415 "/>
    <polygon class="fil0" points="50618561,0 101826585,0 101826585,533415 50618561,533415 "/>
    <g style="clip-path:url(#id1)">
     <g>
      <g>
       <g>
        <polygon id="1" class="fil1" points="50972732,424811 51141435,254182 51310138,83567 50972732,83567 50635327,83567 50804003,254182 "/>
        <polygon class="fil2" points="51832512,449861 52012454,267439 52192422,85004 51832512,85004 51472628,85004 51652583,267439 "/>
        <polygon class="fil3" points="52713885,404180 52874766,243919 53035620,83712 52713885,83712 52392124,83712 52553005,243919 "/>
        <polygon class="fil4" points="53567557,430708 53742710,257704 53917877,84701 53567557,84701 53217197,84701 53392390,257704 "/>
        <polygon class="fil3" points="54450869,445442 54626616,266239 54802377,86996 54450869,86996 54099362,86996 54275136,266239 "/>
        <polygon class="fil4" points="55345540,429243 55516168,257506 55686863,85756 55345540,85756 55004216,85756 55174871,257506 "/>
       </g>
       <g>
        <polygon class="fil1" points="56200359,424811 56369075,254182 56537765,83567 56200359,83567 55862940,83567 56031630,254182 "/>
        <polygon class="fil2" points="57060138,449861 57240067,267439 57420048,85004 57060138,85004 56700241,85004 56880196,267439 "/>
        <polygon class="fil3" points="57941498,404180 58102379,243919 58263259,83712 57941498,83712 57619764,83712 57780618,243919 "/>
        <polygon class="fil4" points="58795183,430708 58970337,257704 59145503,84701 58795183,84701 58444824,84701 58620004,257704 "/>
        <polygon class="fil3" points="59678496,445442 59854256,266239 60029990,86996 59678496,86996 59326975,86996 59502762,266239 "/>
        <polygon class="fil4" points="60573153,429243 60743808,257506 60914477,85756 60573153,85756 60231842,85756 60402485,257506 "/>
       </g>
       <g>
        <polygon class="fil1" points="61421509,424811 61590238,254182 61758914,83567 61421509,83567 61084103,83567 61252806,254182 "/>
        <polygon class="fil2" points="62281314,449861 62461243,267439 62641198,85004 62281314,85004 61921404,85004 62101372,267439 "/>
        <polygon class="fil3" points="63162674,404180 63323542,243919 63484422,83712 63162674,83712 62840914,83712 63001794,243919 "/>
        <polygon class="fil4" points="64016359,430708 64191486,257704 64366679,84701 64016359,84701 63665987,84701 63841166,257704 "/>
        <polygon class="fil3" points="64899672,445442 65075406,266239 65251140,86996 64899672,86996 64548152,86996 64723925,266239 "/>
        <polygon class="fil4" points="65794329,429243 65964958,257506 66135639,85756 65794329,85756 65453005,85756 65623661,257506 "/>
       </g>
       <g>
        <polygon class="fil1" points="66664859,424811 66833575,254182 67002265,83567 66664859,83567 66327440,83567 66496130,254182 "/>
        <polygon class="fil2" points="67524638,449861 67704567,267439 67884548,85004 67524638,85004 67164742,85004 67344697,267439 "/>
        <polygon class="fil3" points="68405999,404180 68566879,243919 68727760,83712 68405999,83712 68084264,83712 68245145,243919 "/>
        <polygon class="fil4" points="69259684,430708 69434837,257704 69610004,84701 69259684,84701 68909337,84701 69084517,257704 "/>
        <polygon class="fil3" points="70142996,445442 70318756,266239 70494490,86996 70142996,86996 69791476,86996 69967262,266239 "/>
        <polygon class="fil4" points="71037666,429243 71208308,257506 71378990,85756 71037666,85756 70696356,85756 70866985,257506 "/>
       </g>
       <g>
        <polygon class="fil1" points="71906363,424811 72075092,254182 72243769,83567 71906363,83567 71568970,83567 71737660,254182 "/>
        <polygon class="fil2" points="72766155,449861 72946097,267439 73126052,85004 72766155,85004 72406258,85004 72586227,267439 "/>
        <polygon class="fil3" points="73647529,404180 73808409,243919 73969277,83712 73647529,83712 73325768,83712 73486648,243919 "/>
        <polygon class="fil4" points="74501214,430708 74676341,257704 74851534,84701 74501214,84701 74150841,84701 74326021,257704 "/>
        <polygon class="fil3" points="75384526,445442 75560260,266239 75736020,86996 75384526,86996 75033006,86996 75208779,266239 "/>
        <polygon class="fil4" points="76279183,429243 76449812,257506 76620494,85756 76279183,85756 75937860,85756 76108515,257506 "/>
       </g>
       <g>
        <polygon class="fil1" points="77175700,424811 77344416,254182 77513106,83567 77175700,83567 76838281,83567 77006971,254182 "/>
        <polygon class="fil2" points="78035493,449861 78215434,267439 78395390,85004 78035493,85004 77675583,85004 77855564,267439 "/>
        <polygon class="fil3" points="78916866,404180 79077720,243919 79238601,83712 78916866,83712 78595105,83712 78755986,243919 "/>
        <polygon class="fil4" points="79770525,430708 79945678,257704 80120845,84701 79770525,84701 79420178,84701 79595358,257704 "/>
        <polygon class="fil3" points="80653850,445442 80829597,266239 81005331,86996 80653850,86996 80302343,86996 80478103,266239 "/>
        <polygon class="fil4" points="81548507,429243 81719149,257506 81889818,85756 81548507,85756 81207197,85756 81377826,257506 "/>
       </g>
       <g>
        <polygon class="fil1" points="82427678,424811 82596381,254182 82765084,83567 82427678,83567 82090272,83567 82258948,254182 "/>
        <polygon class="fil2" points="83287457,449861 83467399,267439 83647367,85004 83287457,85004 82927573,85004 83107528,267439 "/>
        <polygon class="fil3" points="84168830,404180 84329711,243919 84490565,83712 84168830,83712 83847069,83712 84007950,243919 "/>
        <polygon class="fil4" points="85022502,430708 85197656,257704 85372822,84701 85022502,84701 84672143,84701 84847336,257704 "/>
        <polygon class="fil3" points="85905815,445442 86081562,266239 86257322,86996 85905815,86996 85554307,86996 85730081,266239 "/>
        <polygon class="fil4" points="86800485,429243 86971114,257506 87141782,85756 86800485,85756 86459161,85756 86629816,257506 "/>
       </g>
       <g>
        <polygon class="fil1" points="87691567,424811 87860270,254182 88028946,83567 87691567,83567 87354148,83567 87522838,254182 "/>
        <polygon class="fil2" points="88551346,449861 88731275,267439 88911230,85004 88551346,85004 88191436,85004 88371404,267439 "/>
        <polygon class="fil3" points="89432707,404180 89593587,243919 89754454,83712 89432707,83712 89110946,83712 89271826,243919 "/>
        <polygon class="fil4" points="90286391,430708 90461518,257704 90636711,84701 90286391,84701 89936032,84701 90111198,257704 "/>
        <polygon class="fil3" points="91169704,445442 91345438,266239 91521198,86996 91169704,86996 90818184,86996 90993970,266239 "/>
        <polygon class="fil4" points="92064361,429243 92235003,257506 92405671,85756 92064361,85756 91723051,85756 91893693,257506 "/>
       </g>
       <g>
        <polygon class="fil1" points="92947726,424811 93116429,254182 93285132,83567 92947726,83567 92610307,83567 92778997,254182 "/>
        <polygon class="fil2" points="93807506,449861 93987434,267439 94167416,85004 93807506,85004 93447609,85004 93627564,267439 "/>
        <polygon class="fil3" points="94688866,404180 94849746,243919 95010614,83712 94688866,83712 94367105,83712 94527985,243919 "/>
        <polygon class="fil4" points="95542551,430708 95717704,257704 95892871,84701 95542551,84701 95192191,84701 95367384,257704 "/>
        <polygon class="fil3" points="96425863,445442 96601597,266239 96777357,86996 96425863,86996 96074343,86996 96250129,266239 "/>
        <polygon class="fil4" points="97320533,429243 97491162,257506 97661844,85756 97320533,85756 96979210,85756 97149852,257506 "/>
       </g>
       <polygon class="fil1" points="98174574,424811 98343291,254182 98511980,83567 98174574,83567 97837182,83567 98005872,254182 "/>
       <polygon class="fil2" points="99034367,449861 99214309,267439 99394264,85004 99034367,85004 98674457,85004 98854438,267439 "/>
       <polygon class="fil3" points="99915740,404180 100076621,243919 100237475,83712 99915740,83712 99593979,83712 99754860,243919 "/>
       <polygon class="fil4" points="100769412,430708 100944552,257704 101119745,84701 100769412,84701 100419053,84701 100594232,257704 "/>
       <polygon class="fil3" points="101652738,445442 101828472,266239 102004232,86996 101652738,86996 101301217,86996 101476991,266239 "/>
      </g>
     </g>
    </g>
    <polygon class="fil5" points="50618561,0 101826585,0 101826585,533415 50618561,533415 "/>
   </g>
   <g>
    <polygon class="fil0" points="101303790,0 152511814,0 152511814,533415 101303790,533415 "/>
    <g style="clip-path:url(#id2)">
     <g>
      <g>
       <g>
        <polygon id="1" class="fil1" points="101657962,424811 101826664,254182 101995367,83567 101657962,83567 101320556,83567 101489232,254182 "/>
        <polygon class="fil2" points="102517741,449861 102697683,267439 102877651,85004 102517741,85004 102157857,85004 102337812,267439 "/>
        <polygon class="fil3" points="103399114,404180 103559995,243919 103720849,83712 103399114,83712 103077353,83712 103238234,243919 "/>
        <polygon class="fil4" points="104252786,430708 104427939,257704 104603106,84701 104252786,84701 103902426,84701 104077619,257704 "/>
        <polygon class="fil3" points="105136099,445442 105311846,266239 105487606,86996 105136099,86996 104784591,86996 104960365,266239 "/>
        <polygon class="fil4" points="106030769,429243 106201398,257506 106372092,85756 106030769,85756 105689445,85756 105860100,257506 "/>
       </g>
       <g>
        <polygon class="fil1" points="106885588,424811 107054304,254182 107222994,83567 106885588,83567 106548169,83567 106716859,254182 "/>
        <polygon class="fil2" points="107745367,449861 107925296,267439 108105277,85004 107745367,85004 107385471,85004 107565426,267439 "/>
        <polygon class="fil3" points="108626728,404180 108787608,243919 108948489,83712 108626728,83712 108304993,83712 108465847,243919 "/>
        <polygon class="fil4" points="109480413,430708 109655566,257704 109830733,84701 109480413,84701 109130053,84701 109305233,257704 "/>
        <polygon class="fil3" points="110363725,445442 110539485,266239 110715219,86996 110363725,86996 110012205,86996 110187991,266239 "/>
        <polygon class="fil4" points="111258382,429243 111429037,257506 111599706,85756 111258382,85756 110917072,85756 111087714,257506 "/>
       </g>
       <g>
        <polygon class="fil1" points="112106738,424811 112275467,254182 112444144,83567 112106738,83567 111769332,83567 111938035,254182 "/>
        <polygon class="fil2" points="112966543,449861 113146472,267439 113326427,85004 112966543,85004 112606633,85004 112786602,267439 "/>
        <polygon class="fil3" points="113847904,404180 114008771,243919 114169651,83712 113847904,83712 113526143,83712 113687023,243919 "/>
        <polygon class="fil4" points="114701589,430708 114876716,257704 115051909,84701 114701589,84701 114351216,84701 114526396,257704 "/>
        <polygon class="fil3" points="115584901,445442 115760635,266239 115936369,86996 115584901,86996 115233381,86996 115409154,266239 "/>
        <polygon class="fil4" points="116479558,429243 116650187,257506 116820868,85756 116479558,85756 116138234,85756 116308890,257506 "/>
       </g>
       <g>
        <polygon class="fil1" points="117350088,424811 117518804,254182 117687494,83567 117350088,83567 117012669,83567 117181359,254182 "/>
        <polygon class="fil2" points="118209868,449861 118389796,267439 118569778,85004 118209868,85004 117849971,85004 118029926,267439 "/>
        <polygon class="fil3" points="119091228,404180 119252108,243919 119412989,83712 119091228,83712 118769493,83712 118930374,243919 "/>
        <polygon class="fil4" points="119944913,430708 120120066,257704 120295233,84701 119944913,84701 119594566,84701 119769746,257704 "/>
        <polygon class="fil3" points="120828225,445442 121003985,266239 121179719,86996 120828225,86996 120476705,86996 120652491,266239 "/>
        <polygon class="fil4" points="121722895,429243 121893537,257506 122064219,85756 121722895,85756 121381585,85756 121552214,257506 "/>
       </g>
       <g>
        <polygon class="fil1" points="122591592,424811 122760321,254182 122928998,83567 122591592,83567 122254199,83567 122422889,254182 "/>
        <polygon class="fil2" points="123451384,449861 123631326,267439 123811281,85004 123451384,85004 123091488,85004 123271456,267439 "/>
        <polygon class="fil3" points="124332758,404180 124493638,243919 124654506,83712 124332758,83712 124010997,83712 124171877,243919 "/>
        <polygon class="fil4" points="125186443,430708 125361570,257704 125536763,84701 125186443,84701 124836070,84701 125011250,257704 "/>
        <polygon class="fil3" points="126069755,445442 126245489,266239 126421249,86996 126069755,86996 125718235,86996 125894008,266239 "/>
        <polygon class="fil4" points="126964412,429243 127135041,257506 127305723,85756 126964412,85756 126623089,85756 126793744,257506 "/>
       </g>
       <g>
        <polygon class="fil1" points="127860929,424811 128029645,254182 128198335,83567 127860929,83567 127523510,83567 127692200,254182 "/>
        <polygon class="fil2" points="128720722,449861 128900664,267439 129080619,85004 128720722,85004 128360812,85004 128540793,267439 "/>
        <polygon class="fil3" points="129602095,404180 129762949,243919 129923830,83712 129602095,83712 129280334,83712 129441215,243919 "/>
        <polygon class="fil4" points="130455754,430708 130630907,257704 130806074,84701 130455754,84701 130105407,84701 130280587,257704 "/>
        <polygon class="fil3" points="131339079,445442 131514826,266239 131690560,86996 131339079,86996 130987572,86996 131163332,266239 "/>
        <polygon class="fil4" points="132233736,429243 132404378,257506 132575047,85756 132233736,85756 131892426,85756 132063055,257506 "/>
       </g>
       <g>
        <polygon class="fil1" points="133112907,424811 133281610,254182 133450313,83567 133112907,83567 132775501,83567 132944178,254182 "/>
        <polygon class="fil2" points="133972686,449861 134152628,267439 134332596,85004 133972686,85004 133612802,85004 133792757,267439 "/>
        <polygon class="fil3" points="134854060,404180 135014940,243919 135175794,83712 134854060,83712 134532299,83712 134693179,243919 "/>
        <polygon class="fil4" points="135707731,430708 135882885,257704 136058051,84701 135707731,84701 135357372,84701 135532565,257704 "/>
        <polygon class="fil3" points="136591044,445442 136766791,266239 136942551,86996 136591044,86996 136239537,86996 136415310,266239 "/>
        <polygon class="fil4" points="137485714,429243 137656343,257506 137827011,85756 137485714,85756 137144390,85756 137315046,257506 "/>
       </g>
       <g>
        <polygon class="fil1" points="138376796,424811 138545499,254182 138714176,83567 138376796,83567 138039377,83567 138208067,254182 "/>
        <polygon class="fil2" points="139236575,449861 139416504,267439 139596459,85004 139236575,85004 138876665,85004 139056634,267439 "/>
        <polygon class="fil3" points="140117936,404180 140278816,243919 140439683,83712 140117936,83712 139796175,83712 139957055,243919 "/>
        <polygon class="fil4" points="140971621,430708 141146748,257704 141321941,84701 140971621,84701 140621261,84701 140796428,257704 "/>
        <polygon class="fil3" points="141854933,445442 142030667,266239 142206427,86996 141854933,86996 141503413,86996 141679199,266239 "/>
        <polygon class="fil4" points="142749590,429243 142920232,257506 143090900,85756 142749590,85756 142408280,85756 142578922,257506 "/>
       </g>
       <g>
        <polygon class="fil1" points="143632955,424811 143801658,254182 143970361,83567 143632955,83567 143295536,83567 143464226,254182 "/>
        <polygon class="fil2" points="144492735,449861 144672663,267439 144852645,85004 144492735,85004 144132838,85004 144312793,267439 "/>
        <polygon class="fil3" points="145374095,404180 145534975,243919 145695843,83712 145374095,83712 145052334,83712 145213214,243919 "/>
        <polygon class="fil4" points="146227780,430708 146402933,257704 146578100,84701 146227780,84701 145877420,84701 146052613,257704 "/>
        <polygon class="fil3" points="147111092,445442 147286826,266239 147462586,86996 147111092,86996 146759572,86996 146935358,266239 "/>
        <polygon class="fil4" points="148005762,429243 148176391,257506 148347073,85756 148005762,85756 147664439,85756 147835081,257506 "/>
       </g>
       <polygon class="fil1" points="148859804,424811 149028520,254182 149197209,83567 148859804,83567 148522411,83567 148691101,254182 "/>
       <polygon class="fil2" points="149719596,449861 149899538,267439 150079493,85004 149719596,85004 149359686,85004 149539667,267439 "/>
       <polygon class="fil3" points="150600969,404180 150761850,243919 150922704,83712 150600969,83712 150279209,83712 150440089,243919 "/>
       <polygon class="fil4" points="151454641,430708 151629781,257704 151804974,84701 151454641,84701 151104282,84701 151279461,257704 "/>
       <polygon class="fil3" points="152337967,445442 152513701,266239 152689461,86996 152337967,86996 151986446,86996 152162220,266239 "/>
      </g>
     </g>
    </g>
    <polygon class="fil5" points="101303790,0 152511814,0 152511814,533415 101303790,533415 "/>
    <polygon class="fil0" points="151922350,0 203130375,0 203130375,533415 151922350,533415 "/>
    <g style="clip-path:url(#id3)">
     <g>
      <g>
       <g>
        <polygon id="1" class="fil1" points="152276522,424811 152445225,254182 152613928,83567 152276522,83567 151939116,83567 152107793,254182 "/>
        <polygon class="fil2" points="153136301,449861 153316243,267439 153496211,85004 153136301,85004 152776418,85004 152956373,267439 "/>
        <polygon class="fil3" points="154017675,404180 154178555,243919 154339409,83712 154017675,83712 153695914,83712 153856794,243919 "/>
        <polygon class="fil4" points="154871347,430708 155046500,257704 155221667,84701 154871347,84701 154520987,84701 154696180,257704 "/>
        <polygon class="fil3" points="155754659,445442 155930406,266239 156106166,86996 155754659,86996 155403152,86996 155578925,266239 "/>
        <polygon class="fil4" points="156649329,429243 156819958,257506 156990653,85756 156649329,85756 156308006,85756 156478661,257506 "/>
       </g>
       <g>
        <polygon class="fil1" points="157504149,424811 157672865,254182 157841554,83567 157504149,83567 157166730,83567 157335419,254182 "/>
        <polygon class="fil2" points="158363928,449861 158543857,267439 158723838,85004 158363928,85004 158004031,85004 158183986,267439 "/>
        <polygon class="fil3" points="159245288,404180 159406169,243919 159567049,83712 159245288,83712 158923554,83712 159084408,243919 "/>
        <polygon class="fil4" points="160098973,430708 160274127,257704 160449293,84701 160098973,84701 159748613,84701 159923793,257704 "/>
        <polygon class="fil3" points="160982286,445442 161158046,266239 161333780,86996 160982286,86996 160630765,86996 160806552,266239 "/>
        <polygon class="fil4" points="161876943,429243 162047598,257506 162218266,85756 161876943,85756 161535632,85756 161706274,257506 "/>
       </g>
       <g>
        <polygon class="fil1" points="162725298,424811 162894028,254182 163062704,83567 162725298,83567 162387892,83567 162556595,254182 "/>
        <polygon class="fil2" points="163585104,449861 163765033,267439 163944988,85004 163585104,85004 163225194,85004 163405162,267439 "/>
        <polygon class="fil3" points="164466464,404180 164627331,243919 164788212,83712 164466464,83712 164144703,83712 164305584,243919 "/>
        <polygon class="fil4" points="165320149,430708 165495276,257704 165670469,84701 165320149,84701 164969776,84701 165144956,257704 "/>
        <polygon class="fil3" points="166203462,445442 166379195,266239 166554929,86996 166203462,86996 165851941,86996 166027715,266239 "/>
        <polygon class="fil4" points="167098119,429243 167268747,257506 167439429,85756 167098119,85756 166756795,85756 166927450,257506 "/>
       </g>
       <g>
        <polygon class="fil1" points="167968649,424811 168137365,254182 168306055,83567 167968649,83567 167631230,83567 167799919,254182 "/>
        <polygon class="fil2" points="168828428,449861 169008357,267439 169188338,85004 168828428,85004 168468531,85004 168648486,267439 "/>
        <polygon class="fil3" points="169709788,404180 169870669,243919 170031549,83712 169709788,83712 169388054,83712 169548934,243919 "/>
        <polygon class="fil4" points="170563473,430708 170738627,257704 170913793,84701 170563473,84701 170213127,84701 170388307,257704 "/>
        <polygon class="fil3" points="171446786,445442 171622546,266239 171798280,86996 171446786,86996 171095265,86996 171271052,266239 "/>
        <polygon class="fil4" points="172341456,429243 172512098,257506 172682780,85756 172341456,85756 172000146,85756 172170774,257506 "/>
       </g>
       <g>
        <polygon class="fil1" points="173210153,424811 173378882,254182 173547558,83567 173210153,83567 172872760,83567 173041450,254182 "/>
        <polygon class="fil2" points="174069945,449861 174249887,267439 174429842,85004 174069945,85004 173710048,85004 173890016,267439 "/>
        <polygon class="fil3" points="174951318,404180 175112199,243919 175273066,83712 174951318,83712 174629557,83712 174790438,243919 "/>
        <polygon class="fil4" points="175805003,430708 175980130,257704 176155323,84701 175805003,84701 175454631,84701 175629810,257704 "/>
        <polygon class="fil3" points="176688316,445442 176864050,266239 177039810,86996 176688316,86996 176336795,86996 176512569,266239 "/>
        <polygon class="fil4" points="177582973,429243 177753602,257506 177924283,85756 177582973,85756 177241649,85756 177412304,257506 "/>
       </g>
       <g>
        <polygon class="fil1" points="178479490,424811 178648206,254182 178816896,83567 178479490,83567 178142071,83567 178310761,254182 "/>
        <polygon class="fil2" points="179339282,449861 179519224,267439 179699179,85004 179339282,85004 178979372,85004 179159354,267439 "/>
        <polygon class="fil3" points="180220656,404180 180381510,243919 180542390,83712 180220656,83712 179898895,83712 180059775,243919 "/>
        <polygon class="fil4" points="181074314,430708 181249468,257704 181424634,84701 181074314,84701 180723968,84701 180899148,257704 "/>
        <polygon class="fil3" points="181957640,445442 182133387,266239 182309121,86996 181957640,86996 181606133,86996 181781893,266239 "/>
        <polygon class="fil4" points="182852297,429243 183022939,257506 183193607,85756 182852297,85756 182510987,85756 182681615,257506 "/>
       </g>
       <g>
        <polygon class="fil1" points="183731467,424811 183900170,254182 184068873,83567 183731467,83567 183394062,83567 183562738,254182 "/>
        <polygon class="fil2" points="184591247,449861 184771189,267439 184951157,85004 184591247,85004 184231363,85004 184411318,267439 "/>
        <polygon class="fil3" points="185472620,404180 185633501,243919 185794355,83712 185472620,83712 185150859,83712 185311740,243919 "/>
        <polygon class="fil4" points="186326292,430708 186501445,257704 186676612,84701 186326292,84701 185975932,84701 186151125,257704 "/>
        <polygon class="fil3" points="187209604,445442 187385351,266239 187561112,86996 187209604,86996 186858097,86996 187033871,266239 "/>
        <polygon class="fil4" points="188104275,429243 188274903,257506 188445572,85756 188104275,85756 187762951,85756 187933606,257506 "/>
       </g>
       <g>
        <polygon class="fil1" points="188995357,424811 189164060,254182 189332736,83567 188995357,83567 188657938,83567 188826627,254182 "/>
        <polygon class="fil2" points="189855136,449861 190035065,267439 190215020,85004 189855136,85004 189495226,85004 189675194,267439 "/>
        <polygon class="fil3" points="190736496,404180 190897377,243919 191058244,83712 190736496,83712 190414735,83712 190575616,243919 "/>
        <polygon class="fil4" points="191590181,430708 191765308,257704 191940501,84701 191590181,84701 191239822,84701 191414988,257704 "/>
        <polygon class="fil3" points="192473494,445442 192649227,266239 192824988,86996 192473494,86996 192121973,86996 192297760,266239 "/>
        <polygon class="fil4" points="193368151,429243 193538793,257506 193709461,85756 193368151,85756 193026840,85756 193197482,257506 "/>
       </g>
       <g>
        <polygon class="fil1" points="194251516,424811 194420219,254182 194588922,83567 194251516,83567 193914097,83567 194082787,254182 "/>
        <polygon class="fil2" points="195111295,449861 195291224,267439 195471205,85004 195111295,85004 194751398,85004 194931353,267439 "/>
        <polygon class="fil3" points="195992655,404180 196153536,243919 196314403,83712 195992655,83712 195670894,83712 195831775,243919 "/>
        <polygon class="fil4" points="196846340,430708 197021494,257704 197196660,84701 196846340,84701 196495981,84701 196671174,257704 "/>
        <polygon class="fil3" points="197729653,445442 197905387,266239 198081147,86996 197729653,86996 197378132,86996 197553919,266239 "/>
        <polygon class="fil4" points="198624323,429243 198794952,257506 198965633,85756 198624323,85756 198282999,85756 198453641,257506 "/>
       </g>
       <polygon class="fil1" points="199478364,424811 199647080,254182 199815770,83567 199478364,83567 199140972,83567 199309661,254182 "/>
       <polygon class="fil2" points="200338157,449861 200518098,267439 200698054,85004 200338157,85004 199978247,85004 200158228,267439 "/>
       <polygon class="fil3" points="201219530,404180 201380411,243919 201541265,83712 201219530,83712 200897769,83712 201058650,243919 "/>
       <polygon class="fil4" points="202073202,430708 202248342,257704 202423535,84701 202073202,84701 201722842,84701 201898022,257704 "/>
       <polygon class="fil3" points="202956527,445442 203132261,266239 203308022,86996 202956527,86996 202605007,86996 202780780,266239 "/>
      </g>
     </g>
    </g>
    <polygon class="fil5" points="151922350,0 203130375,0 203130375,533415 151922350,533415 "/>
   </g>
  </g>
 </g>
</svg>
